<?xml version="1.0" encoding="utf-8"?>
<!-- Generator: Adobe Illustrator 21.0.2, SVG Export Plug-In . SVG Version: 6.00 Build 0)  -->
<svg version="1.1" id="Layer_1" xmlns="http://www.w3.org/2000/svg" xmlns:xlink="http://www.w3.org/1999/xlink" x="0px" y="0px"
	 viewBox="0 0 1335.1 543.1" style="enable-background:new 0 0 1335.1 543.1;" xml:space="preserve">
<style type="text/css">
	.Arched_x0020_Green{fill:url(#SVGID_1_);stroke:#FFFFFF;stroke-width:0.25;stroke-miterlimit:1;}
	.st0{fill:#41A9D9;}
	.st1{fill:#253B7A;}
</style>
<linearGradient id="SVGID_1_" gradientUnits="userSpaceOnUse" x1="-120.1224" y1="736.8188" x2="-119.4153" y2="736.1117">
	<stop  offset="0" style="stop-color:#20AC4B"/>
	<stop  offset="0.9831" style="stop-color:#19361A"/>
</linearGradient>
<polygon points="197.3,230.2 217.6,230.2 217.6,326.3 227.5,326.3 297.7,280.7 329.4,280.7 329.8,281.2 246.7,334.6 345.7,400.8 
	345.2,401.3 313.5,401.3 226.3,342.9 217.6,342.9 217.6,401.3 197.3,401.3 "/>
<path d="M505.9,344.5v-13.5c0-43-26.2-52.2-62.6-52.2h-32.6c-28.8,0-59.1,5-59.1,48.7v26.2c0,44.4,30.3,49.4,56.7,49.4h36.9
	c37.8,0,60.7-8.3,60.7-35.9v-2.4h-20.3c-1.2,18.4-11.6,21.7-37.1,21.7h-27.9c-35.4,0-48.7-7.1-48.7-34.5v-7.6H505.9z M413.5,295.4
	h29.8c33.1,0,42.3,12.3,42.3,24.6v8H371.9C373.8,300.6,381.4,295.4,413.5,295.4z"/>
<path d="M539.7,429.6c31.2,0,37.8-2.1,48.4-26.5h-5l-68.3-122.4h22.9l58.4,106.6l52.5-106.6h22l-68.1,135.4
	c-12.5,24.8-21,29.5-62.9,30V429.6z"/>
<path d="M711.1,297.3h-26.5v-16.5h26.5v-28.6h20.3v28.6H812v16.5h-80.6v60c0,22.5,7.8,29.3,30,29.3h6.4c26.9,0,31.2-5.7,31.2-31v-9
	h16.5v13.2c0,24.1-2.4,43.2-46.3,43.2h-11.1c-38,0-47-18.4-47-38V297.3z"/>
<path d="M837.3,280.7h18.9v17.5h0.5c7.6-15.6,22.9-19.4,36.9-19.4h19.1c38,0,50.6,12.3,50.6,41.8v14.4h-18.9v-5.2
	c0-29.8-6.1-34.5-42.3-34.5h-12.5c-21.5,0-31.9,13.7-31.9,29.3v76.6h-20.3V280.7z"/>
<path d="M1136.2,344.5v-13.5c0-43-26.2-52.2-62.6-52.2H1041c-28.8,0-59.1,5-59.1,48.7v26.2c0,44.4,30.3,49.4,56.7,49.4h36.9
	c37.8,0,60.7-8.3,60.7-35.9v-2.4h-20.3c-1.2,18.4-11.6,21.7-37.1,21.7h-27.9c-35.5,0-48.7-7.1-48.7-34.5v-7.6H1136.2z M1043.8,295.4
	h29.8c33.1,0,42.3,12.3,42.3,24.6v8h-113.7C1004.1,300.6,1011.7,295.4,1043.8,295.4z"/>
<path d="M1312.3,344.5v-13.5c0-43-26.2-52.2-62.6-52.2h-32.6c-28.8,0-59.1,5-59.1,48.7v26.2c0,44.4,30.2,49.4,56.7,49.4h36.9
	c37.8,0,60.7-8.3,60.7-35.9v-2.4H1292c-1.2,18.4-11.6,21.7-37.1,21.7H1227c-35.5,0-48.7-7.1-48.7-34.5v-7.6H1312.3z M1219.9,295.4
	h29.8c33.1,0,42.3,12.3,42.3,24.6v8h-113.7C1180.2,300.6,1187.8,295.4,1219.9,295.4z"/>
<path class="st0" d="M28.3,40.7c-2.5-2.2-4.5-1.3-4.5,2v112.5c0,3.3,2,7.8,4.4,10l56.9,52.6c2.4,2.2,4.4,1.4,4.4-1.9V100.5
	c0-3.3-2-7.7-4.5-9.9L28.3,40.7z"/>
<path class="st1" d="M87.4,236c0-3.3,1.8-8,4-10.4l91.6-101.3c2.2-2.4,4-1.7,4,1.5v67.7c0,3.3-1.8,8-4,10.4l-91.5,99.7
	c-2.2,2.4-4,1.7-4-1.6L87.4,236z"/>
<path class="st1" d="M92.6,316.1c-2.2-2.4-4.1-1.7-4.1,1.6v88.1c0,3.3,1.8,7.9,4.1,10.4l91.2,98.7c2.2,2.4,4.1,1.7,4.1-1.6v-89.6
	c0-3.3-1.8-7.9-4.1-10.3L92.6,316.1z"/>
</svg>
